<?xml version="1.0" encoding="UTF-8" standalone="no"?><svg xmlns="http://www.w3.org/2000/svg" xmlns:xlink="http://www.w3.org/1999/xlink" contentScriptType="application/ecmascript" contentStyleType="text/css" height="960px" preserveAspectRatio="none" style="width:466px;height:960px;background:#FFFFFF;" version="1.1" viewBox="0 0 466 960" width="466px" zoomAndPan="magnify"><defs><filter height="300%" id="f1nlkckvotrhnj" width="300%" x="-1" y="-1"><feGaussianBlur result="blurOut" stdDeviation="2.0"/><feColorMatrix in="blurOut" result="blurOut2" type="matrix" values="0 0 0 0 0 0 0 0 0 0 0 0 0 0 0 0 0 0 .4 0"/><feOffset dx="4.0" dy="4.0" in="blurOut2" result="blurOut3"/><feBlend in="SourceGraphic" in2="blurOut3" mode="normal"/></filter></defs><g><ellipse cx="220.5" cy="20" fill="#000000" filter="url(#f1nlkckvotrhnj)" rx="10" ry="10" style="stroke:none;stroke-width:1.0;"/><rect fill="#FEFECE" filter="url(#f1nlkckvotrhnj)" height="34.1328" rx="12.5" ry="12.5" style="stroke:#A80036;stroke-width:1.5;" width="145" x="148" y="50"/><text fill="#000000" font-family="sans-serif" font-size="12" lengthAdjust="spacing" textLength="125" x="158" y="71.6016">打开 Sonarr 或 Radarr</text><rect fill="#FEFECE" filter="url(#f1nlkckvotrhnj)" height="34.1328" rx="12.5" ry="12.5" style="stroke:#A80036;stroke-width:1.5;" width="175" x="133" y="104.1328"/><text fill="#000000" font-family="sans-serif" font-size="12" lengthAdjust="spacing" textLength="155" x="143" y="125.7344">通过 Jackett 搜索美剧或电影</text><rect fill="#FEFECE" filter="url(#f1nlkckvotrhnj)" height="34.1328" rx="12.5" ry="12.5" style="stroke:#A80036;stroke-width:1.5;" width="104" x="168.5" y="206.7432"/><text fill="#000000" font-family="sans-serif" font-size="12" lengthAdjust="spacing" textLength="84" x="178.5" y="228.3447">添加到监控列表</text><rect fill="#FEFECE" filter="url(#f1nlkckvotrhnj)" height="34.1328" rx="12.5" ry="12.5" style="stroke:#A80036;stroke-width:1.5;" width="92" x="174.5" y="317.0107"/><text fill="#000000" font-family="sans-serif" font-size="12" lengthAdjust="spacing" textLength="72" x="184.5" y="338.6123">等待资源出现</text><polygon fill="#FEFECE" filter="url(#f1nlkckvotrhnj)" points="179,260.876,262,260.876,274,272.876,262,284.876,179,284.876,167,272.876,179,260.876" style="stroke:#A80036;stroke-width:1.5;"/><text fill="#000000" font-family="sans-serif" font-size="11" lengthAdjust="spacing" textLength="11" x="224.5" y="295.5107">否</text><text fill="#000000" font-family="sans-serif" font-size="11" lengthAdjust="spacing" textLength="77" x="182" y="277.0332">资源是否存在？</text><text fill="#000000" font-family="sans-serif" font-size="11" lengthAdjust="spacing" textLength="11" x="156" y="270.5557">是</text><rect fill="#FEFECE" filter="url(#f1nlkckvotrhnj)" height="34.1328" rx="12.5" ry="12.5" style="stroke:#A80036;stroke-width:1.5;" width="149" x="146" y="393.1436"/><text fill="#000000" font-family="sans-serif" font-size="12" lengthAdjust="spacing" textLength="129" x="156" y="414.7451">发送到 qBittorrent 下载</text><rect fill="#FEFECE" filter="url(#f1nlkckvotrhnj)" height="34.1328" rx="12.5" ry="12.5" style="stroke:#A80036;stroke-width:1.5;" width="155" x="143" y="447.2764"/><text fill="#000000" font-family="sans-serif" font-size="12" lengthAdjust="spacing" textLength="135" x="153" y="468.8779">通过 Telegram 发送通知</text><rect fill="#FEFECE" filter="url(#f1nlkckvotrhnj)" height="34.1328" rx="12.5" ry="12.5" style="stroke:#A80036;stroke-width:1.5;" width="68" x="186.5" y="501.4092"/><text fill="#000000" font-family="sans-serif" font-size="12" lengthAdjust="spacing" textLength="48" x="196.5" y="523.0107">下载完成</text><rect fill="#FEFECE" filter="url(#f1nlkckvotrhnj)" height="34.1328" rx="12.5" ry="12.5" style="stroke:#A80036;stroke-width:1.5;" width="155" x="143" y="556.5645"/><text fill="#000000" font-family="sans-serif" font-size="12" lengthAdjust="spacing" textLength="135" x="153" y="578.166">通过 Telegram 发送通知</text><rect fill="#FEFECE" filter="url(#f1nlkckvotrhnj)" height="34.1328" rx="12.5" ry="12.5" style="stroke:#A80036;stroke-width:1.5;" width="253" x="94" y="610.6973"/><text fill="#000000" font-family="sans-serif" font-size="12" lengthAdjust="spacing" textLength="233" x="104" y="632.2988">导入下载的美剧或电影到 Sonarr 或 Radarr</text><rect fill="#FEFECE" filter="url(#f1nlkckvotrhnj)" height="34.1328" rx="12.5" ry="12.5" style="stroke:#A80036;stroke-width:1.5;" width="80" x="180.5" y="664.8301"/><text fill="#000000" font-family="sans-serif" font-size="12" lengthAdjust="spacing" textLength="60" x="190.5" y="686.4316">刮削元数据</text><rect fill="#000000" filter="url(#f1nlkckvotrhnj)" height="6" rx="2.5" ry="2.5" style="stroke:#000000;stroke-width:1.0;" width="419" x="11" y="718.9629"/><rect fill="#FEFECE" filter="url(#f1nlkckvotrhnj)" height="34.1328" rx="12.5" ry="12.5" style="stroke:#A80036;stroke-width:1.5;" width="174" x="23" y="744.9629"/><text fill="#000000" font-family="sans-serif" font-size="12" lengthAdjust="spacing" textLength="154" x="33" y="766.5645">ChineseSubFinder 搜索字幕</text><rect fill="#FEFECE" filter="url(#f1nlkckvotrhnj)" height="34.1328" rx="12.5" ry="12.5" style="stroke:#A80036;stroke-width:1.5;" width="193" x="225" y="744.9629"/><text fill="#000000" font-family="sans-serif" font-size="12" lengthAdjust="spacing" textLength="173" x="235" y="766.5645">导入下载的美剧或电影到 Jellyfin</text><rect fill="#000000" filter="url(#f1nlkckvotrhnj)" height="6" rx="2.5" ry="2.5" style="stroke:#000000;stroke-width:1.0;" width="419" x="11" y="799.0957"/><rect fill="#FEFECE" filter="url(#f1nlkckvotrhnj)" height="34.1328" rx="12.5" ry="12.5" style="stroke:#A80036;stroke-width:1.5;" width="92" x="174.5" y="825.0957"/><text fill="#000000" font-family="sans-serif" font-size="12" lengthAdjust="spacing" textLength="72" x="184.5" y="846.6973">打开电视观看</text><polygon fill="#FEFECE" filter="url(#f1nlkckvotrhnj)" points="179,158.2656,262,158.2656,274,170.2656,262,182.2656,179,182.2656,167,170.2656,179,158.2656" style="stroke:#A80036;stroke-width:1.5;"/><text fill="#000000" font-family="sans-serif" font-size="11" lengthAdjust="spacing" textLength="11" x="224.5" y="192.9004">是</text><text fill="#000000" font-family="sans-serif" font-size="11" lengthAdjust="spacing" textLength="77" x="182" y="174.4229">是否搜到结果？</text><text fill="#000000" font-family="sans-serif" font-size="11" lengthAdjust="spacing" textLength="11" x="274" y="167.9453">否</text><polygon fill="#FEFECE" filter="url(#f1nlkckvotrhnj)" points="220.5,879.2285,232.5,891.2285,220.5,903.2285,208.5,891.2285,220.5,879.2285" style="stroke:#A80036;stroke-width:1.5;"/><ellipse cx="220.5" cy="933.2285" fill="#FFFFFF" filter="url(#f1nlkckvotrhnj)" rx="10" ry="10" style="stroke:#000000;stroke-width:1.5;"/><line style="stroke:#000000;stroke-width:2.5;" x1="214.3128" x2="226.6872" y1="927.0413" y2="939.4157"/><line style="stroke:#000000;stroke-width:2.5;" x1="226.6872" x2="214.3128" y1="927.0413" y2="939.4157"/><line style="stroke:#A80036;stroke-width:1.5;" x1="220.5" x2="220.5" y1="30" y2="50"/><polygon fill="#A80036" points="216.5,40,220.5,50,224.5,40,220.5,44" style="stroke:#A80036;stroke-width:1.0;"/><line style="stroke:#A80036;stroke-width:1.5;" x1="220.5" x2="220.5" y1="84.1328" y2="104.1328"/><polygon fill="#A80036" points="216.5,94.1328,220.5,104.1328,224.5,94.1328,220.5,98.1328" style="stroke:#A80036;stroke-width:1.0;"/><line style="stroke:#A80036;stroke-width:1.5;" x1="220.5" x2="220.5" y1="284.876" y2="317.0107"/><polygon fill="#A80036" points="216.5,307.0107,220.5,317.0107,224.5,307.0107,220.5,311.0107" style="stroke:#A80036;stroke-width:1.0;"/><line style="stroke:#A80036;stroke-width:1.5;" x1="220.5" x2="220.5" y1="351.1436" y2="361.1436"/><line style="stroke:#A80036;stroke-width:1.5;" x1="220.5" x2="286" y1="361.1436" y2="361.1436"/><polygon fill="#A80036" points="282,325.5996,286,315.5996,290,325.5996,286,321.5996" style="stroke:#A80036;stroke-width:1.5;"/><line style="stroke:#A80036;stroke-width:1.5;" x1="286" x2="286" y1="272.876" y2="361.1436"/><line style="stroke:#A80036;stroke-width:1.5;" x1="286" x2="274" y1="272.876" y2="272.876"/><polygon fill="#A80036" points="284,268.876,274,272.876,284,276.876,280,272.876" style="stroke:#A80036;stroke-width:1.0;"/><line style="stroke:#A80036;stroke-width:1.5;" x1="167" x2="155" y1="272.876" y2="272.876"/><polygon fill="#A80036" points="151,311.5996,155,321.5996,159,311.5996,155,315.5996" style="stroke:#A80036;stroke-width:1.5;"/><line style="stroke:#A80036;stroke-width:1.5;" x1="155" x2="155" y1="272.876" y2="373.1436"/><line style="stroke:#A80036;stroke-width:1.5;" x1="155" x2="220.5" y1="373.1436" y2="373.1436"/><line style="stroke:#A80036;stroke-width:1.5;" x1="220.5" x2="220.5" y1="373.1436" y2="393.1436"/><polygon fill="#A80036" points="216.5,383.1436,220.5,393.1436,224.5,383.1436,220.5,387.1436" style="stroke:#A80036;stroke-width:1.0;"/><line style="stroke:#A80036;stroke-width:1.5;" x1="220.5" x2="220.5" y1="240.876" y2="260.876"/><polygon fill="#A80036" points="216.5,250.876,220.5,260.876,224.5,250.876,220.5,254.876" style="stroke:#A80036;stroke-width:1.0;"/><line style="stroke:#A80036;stroke-width:1.5;" x1="220.5" x2="220.5" y1="427.2764" y2="447.2764"/><polygon fill="#A80036" points="216.5,437.2764,220.5,447.2764,224.5,437.2764,220.5,441.2764" style="stroke:#A80036;stroke-width:1.0;"/><line style="stroke:#A80036;stroke-width:1.5;" x1="220.5" x2="220.5" y1="481.4092" y2="501.4092"/><polygon fill="#A80036" points="216.5,491.4092,220.5,501.4092,224.5,491.4092,220.5,495.4092" style="stroke:#A80036;stroke-width:1.0;"/><line style="stroke:#A80036;stroke-width:1.5;" x1="220.5" x2="220.5" y1="535.542" y2="556.5645"/><polygon fill="#A80036" points="216.5,546.5645,220.5,556.5645,224.5,546.5645,220.5,550.5645" style="stroke:#A80036;stroke-width:1.0;"/><line style="stroke:#A80036;stroke-width:1.5;" x1="220.5" x2="220.5" y1="590.6973" y2="610.6973"/><polygon fill="#A80036" points="216.5,600.6973,220.5,610.6973,224.5,600.6973,220.5,604.6973" style="stroke:#A80036;stroke-width:1.0;"/><line style="stroke:#A80036;stroke-width:1.5;" x1="220.5" x2="220.5" y1="644.8301" y2="664.8301"/><polygon fill="#A80036" points="216.5,654.8301,220.5,664.8301,224.5,654.8301,220.5,658.8301" style="stroke:#A80036;stroke-width:1.0;"/><line style="stroke:#A80036;stroke-width:1.5;" x1="110" x2="110" y1="724.9629" y2="744.9629"/><polygon fill="#A80036" points="106,734.9629,110,744.9629,114,734.9629,110,738.9629" style="stroke:#A80036;stroke-width:1.0;"/><line style="stroke:#A80036;stroke-width:1.5;" x1="321.5" x2="321.5" y1="724.9629" y2="744.9629"/><polygon fill="#A80036" points="317.5,734.9629,321.5,744.9629,325.5,734.9629,321.5,738.9629" style="stroke:#A80036;stroke-width:1.0;"/><line style="stroke:#A80036;stroke-width:1.5;" x1="110" x2="110" y1="779.0957" y2="799.0957"/><polygon fill="#A80036" points="106,789.0957,110,799.0957,114,789.0957,110,793.0957" style="stroke:#A80036;stroke-width:1.0;"/><line style="stroke:#A80036;stroke-width:1.5;" x1="321.5" x2="321.5" y1="779.0957" y2="799.0957"/><polygon fill="#A80036" points="317.5,789.0957,321.5,799.0957,325.5,789.0957,321.5,793.0957" style="stroke:#A80036;stroke-width:1.0;"/><line style="stroke:#A80036;stroke-width:1.5;" x1="220.5" x2="220.5" y1="698.9629" y2="718.9629"/><polygon fill="#A80036" points="216.5,708.9629,220.5,718.9629,224.5,708.9629,220.5,712.9629" style="stroke:#A80036;stroke-width:1.0;"/><line style="stroke:#A80036;stroke-width:1.5;" x1="220.5" x2="220.5" y1="805.0957" y2="825.0957"/><polygon fill="#A80036" points="216.5,815.0957,220.5,825.0957,224.5,815.0957,220.5,819.0957" style="stroke:#A80036;stroke-width:1.0;"/><line style="stroke:#A80036;stroke-width:1.5;" x1="220.5" x2="220.5" y1="182.2656" y2="206.7432"/><polygon fill="#A80036" points="216.5,196.7432,220.5,206.7432,224.5,196.7432,220.5,200.7432" style="stroke:#A80036;stroke-width:1.0;"/><line style="stroke:#A80036;stroke-width:1.5;" x1="274" x2="440" y1="170.2656" y2="170.2656"/><polygon fill="#A80036" points="436,526.5645,440,536.5645,444,526.5645,440,530.5645" style="stroke:#A80036;stroke-width:1.5;"/><line style="stroke:#A80036;stroke-width:1.5;" x1="440" x2="440" y1="170.2656" y2="891.2285"/><line style="stroke:#A80036;stroke-width:1.5;" x1="440" x2="232.5" y1="891.2285" y2="891.2285"/><polygon fill="#A80036" points="242.5,887.2285,232.5,891.2285,242.5,895.2285,238.5,891.2285" style="stroke:#A80036;stroke-width:1.0;"/><line style="stroke:#A80036;stroke-width:1.5;" x1="220.5" x2="220.5" y1="859.2285" y2="879.2285"/><polygon fill="#A80036" points="216.5,869.2285,220.5,879.2285,224.5,869.2285,220.5,873.2285" style="stroke:#A80036;stroke-width:1.0;"/><line style="stroke:#A80036;stroke-width:1.5;" x1="220.5" x2="220.5" y1="138.2656" y2="158.2656"/><polygon fill="#A80036" points="216.5,148.2656,220.5,158.2656,224.5,148.2656,220.5,152.2656" style="stroke:#A80036;stroke-width:1.0;"/><line style="stroke:#A80036;stroke-width:1.5;" x1="220.5" x2="220.5" y1="903.2285" y2="923.2285"/><polygon fill="#A80036" points="216.5,913.2285,220.5,923.2285,224.5,913.2285,220.5,917.2285" style="stroke:#A80036;stroke-width:1.0;"/><!--MD5=[7f0a3cbc6e5a4384601d90a5ec642a90]
@startuml

start

:打开 Sonarr 或 Radarr;

:通过 Jackett 搜索美剧或电影;

if ( 是否搜到结果？ ) then (是)
	:添加到监控列表;

	while ( 资源是否存在？ ) is (否)
		:等待资源出现;
	endwhile (是)

	:发送到 qBittorrent 下载;
	:通过 Telegram 发送通知;
	:下载完成;
	:通过 Telegram 发送通知;
	:导入下载的美剧或电影到 Sonarr 或 Radarr;
	:刮削元数据;

	fork
		:ChineseSubFinder 搜索字幕;
	fork again
		:导入下载的美剧或电影到 Jellyfin;
	end fork

	:打开电视观看;
else (否)
endif

end

@enduml

PlantUML version 1.2021.14(Sat Nov 13 00:46:50 CST 2021)
(GPL source distribution)
Java Runtime: Java(TM) SE Runtime Environment
JVM: Java HotSpot(TM) 64-Bit Server VM
Default Encoding: UTF-8
Language: en
Country: CN
--></g></svg>